<svg id="Layer_1" enable-background="new 0 0 512 512" height="512" viewBox="0 0 512 512" width="512" xmlns="http://www.w3.org/2000/svg"><g><path d="m200 400c-9.433 0-18.301-3.673-24.97-10.343l-43.699-43.699c-12.466-12.465-19.331-29.04-19.331-46.668v-171.29c0-8.836 7.164-16 16-16h144c8.837 0 16 7.164 16 16v171.29c0 17.63-6.865 34.204-19.331 46.669l-43.699 43.699c-6.669 6.669-15.537 10.342-24.97 10.342zm-56-256v155.29c0 9.082 3.537 17.62 9.958 24.042l43.699 43.699c1.251 1.251 3.435 1.251 4.686 0l43.699-43.699c6.421-6.422 9.958-14.959 9.958-24.042v-155.29z"/><path d="m496 232h-112c-8.837 0-16-7.164-16-16s7.163-16 16-16h112c8.837 0 16 7.164 16 16s-7.163 16-16 16z"/><path d="m128 232h-112c-8.836 0-16-7.164-16-16s7.164-16 16-16h112c8.836 0 16 7.164 16 16s-7.164 16-16 16z"/><path d="m200 208c-8.836 0-16-7.164-16-16v-64c0-8.836 7.164-16 16-16s16 7.164 16 16v64c0 8.836-7.164 16-16 16z"/><path d="m328 232h-56c-8.837 0-16-7.164-16-16s7.163-16 16-16h56c8.837 0 16 7.164 16 16s-7.163 16-16 16z"/></g></svg>