<svg id="Layer_1" enable-background="new 0 0 512 512" height="512" viewBox="0 0 512 512" width="512" xmlns="http://www.w3.org/2000/svg"><g><path d="m512 96c0-52.935-43.065-96-96-96-47.484 0-87.019 34.655-94.659 80h-275.341c-25.364 0-46 20.636-46 46v340c0 25.364 20.636 46 46 46h340c25.364 0 46-20.636 46-46v-275.341c45.345-7.64 80-47.175 80-94.659zm-96 64c-11.852 0-22.955-3.25-32.484-8.889l32.484-32.484 32.484 32.484c-9.529 5.639-20.632 8.889-32.484 8.889zm-22.627-64-32.484 32.484c-5.639-9.53-8.889-20.632-8.889-32.484s3.25-22.954 8.889-32.484zm45.254 0 32.484-32.484c5.639 9.53 8.889 20.632 8.889 32.484s-3.25 22.954-8.889 32.484zm9.857-55.111-32.484 32.484-32.484-32.484c9.529-5.639 20.632-8.889 32.484-8.889s22.955 3.25 32.484 8.889zm-402.484 71.111h275.341c3.076 18.254 11.319 34.774 23.171 48h-312.512v-34c0-7.72 6.28-14 14-14zm340 368h-340c-7.72 0-14-6.28-14-14v-274h368v274c0 7.72-6.28 14-14 14z"/></g></svg>