<svg id="Layer_1" enable-background="new 0 0 512 512" height="512" viewBox="0 0 512 512" width="512" xmlns="http://www.w3.org/2000/svg"><g><path d="m466 96h-211.373l-82.526-82.527c-8.688-8.688-20.241-13.473-32.528-13.473h-93.573c-25.364 0-46 20.636-46 46v66 354c0 25.364 20.636 46 46 46h420c25.364 0 46-20.636 46-46v-324c0-25.364-20.636-46-46-46zm-420-64h93.573c3.74 0 7.256 1.456 9.9 4.1l59.9 59.9h-177.373v-50c0-7.72 6.28-14 14-14zm434 434c0 7.72-6.28 14-14 14h-420c-7.72 0-14-6.28-14-14v-338h434c7.72 0 14 6.28 14 14z"/><path d="m365.807 248.984h-67.899l-20.948-65.67c-2.923-9.16-11.346-15.314-20.96-15.314s-18.037 6.154-20.959 15.314l-20.948 65.67h-67.899c-9.516 0-17.912 6.072-20.893 15.109-2.98 9.037.155 18.913 7.806 24.575l55.278 40.909-21.092 66.122c-2.911 9.125.366 19.001 8.155 24.576 3.845 2.752 8.326 4.125 12.806 4.125 4.595 0 9.188-1.446 13.085-4.331l54.661-40.452 54.659 40.451c7.699 5.697 18.104 5.783 25.893.207 7.789-5.574 11.066-15.451 8.155-24.576l-21.092-66.122 55.279-40.909c7.649-5.662 10.785-15.537 7.805-24.574-2.98-9.038-11.377-15.11-20.892-15.11zm-70.433 61.683c-5.505 4.074-7.807 11.199-5.726 17.724l15.164 47.54-39.295-29.081c-5.654-4.185-13.381-4.185-19.035 0l-39.295 29.081 15.164-47.54c2.081-6.524-.221-13.65-5.726-17.724l-40.109-29.683h49.267c6.963 0 13.127-4.503 15.243-11.138l14.974-46.939 14.974 46.94c2.116 6.634 8.28 11.138 15.243 11.138h49.267z"/></g></svg>