<svg id="Layer_1" enable-background="new 0 0 511.969 511.969" height="512" viewBox="0 0 511.969 511.969" width="512" xmlns="http://www.w3.org/2000/svg"><g><path d="m492.402 19.567c-26.089-26.089-68.538-26.089-94.627 0l-393.089 393.088c-3 3.001-4.686 7.07-4.686 11.314v72c0 8.836 7.164 16 16 16h72c4.244 0 8.313-1.686 11.314-4.686l393.088-393.088c26.089-26.09 26.089-68.54 0-94.628zm-364.402 413.774-49.373-49.373 273.373-273.372 49.373 49.373zm-46.627 46.628h-49.373v-49.373l24-24 49.373 49.373zm388.401-388.402-45.774 45.774-49.373-49.373 45.775-45.775c6.594-6.594 15.361-10.226 24.687-10.226s18.092 3.631 24.686 10.226 10.225 15.362 10.225 24.687-3.631 18.092-10.226 24.687z"/></g></svg>