<svg id="Layer_1" enable-background="new 0 0 512 512" height="512" viewBox="0 0 512 512" width="512" xmlns="http://www.w3.org/2000/svg"><g><path d="m512 279.994c0-68.38-26.629-132.667-74.98-181.02s-112.64-74.98-181.02-74.98-132.668 26.629-181.02 74.981-74.98 112.639-74.98 181.019v16.055c0 .005.001.01.001.015s-.001.009-.001.014l.259 142.436c.007 3.585 1.217 7.063 3.437 9.878 17.202 21.813 41.869 35.62 69.457 38.88 4.152.491 8.292.733 12.41.733 23.241 0 45.666-7.741 64.195-22.354.8-.631 1.588-1.271 2.374-1.928 26.578-22.239 38.151-57.157 30.202-91.127-8.08-34.535-34.438-61.143-68.786-69.441l-81.548-19.701v-3.46c0-123.514 100.486-224 224-224s224 100.486 224 224v3.46l-81.548 19.7c-34.349 8.298-60.706 34.906-68.786 69.441-7.949 33.97 3.624 68.888 30.211 91.135.777.649 1.565 1.29 2.365 1.921 18.531 14.614 40.952 22.354 64.195 22.354 4.116 0 8.26-.243 12.41-.733 27.588-3.26 52.255-17.067 69.457-38.88 2.22-2.815 3.43-6.293 3.437-9.878l.259-142.436c0-.005-.001-.009-.001-.014s.001-.01.001-.015zm-405.966 54.266c22.874 5.526 39.75 22.583 45.142 45.626 5.258 22.471-2.062 44.637-19.57 59.288-.547.457-1.102.908-1.664 1.352-15.101 11.909-33.938 17.224-53.034 14.968-17.337-2.049-33.008-10.114-44.659-22.879l-.211-116.23zm373.718 98.354c-11.651 12.765-27.322 20.831-44.659 22.879-19.104 2.253-37.935-3.06-53.034-14.968-.563-.444-1.117-.895-1.655-1.344-17.518-14.658-24.837-36.824-19.579-59.295 5.392-23.043 22.268-40.1 45.142-45.626l73.997-17.876z"/></g></svg>