<svg width="38" height="32" viewBox="0 0 38 32" fill="none" xmlns="http://www.w3.org/2000/svg">
<g opacity="0.6" filter="url(#filter0_d)">
<path d="M32.9353 16.2382L32.9187 16.2149C31.5577 14.3056 28.5752 13.6262 26.1284 14.6682L22.022 16.417C21.8865 15.7471 21.3805 15.1691 20.5854 14.7972L17.1087 13.1711C16.615 12.89 16.0371 12.7417 15.4342 12.7417H10.5837V11.9981C10.5837 11.6173 10.2026 11.3086 9.73251 11.3086H4.85118C4.3811 11.3086 4 11.6173 4 11.9981V21.6C4 21.9808 4.3811 22.2895 4.85118 22.2895H9.73246C10.2025 22.2895 10.5836 21.9808 10.5836 21.6V20.2256H11.6627L18.0001 23.1957C18.4748 23.4182 18.969 23.5295 19.4489 23.5295C19.909 23.5295 20.356 23.427 20.7591 23.2218L32.6509 17.1667C33.0384 16.9694 33.164 16.5593 32.9353 16.2382V16.2382ZM8.88128 20.9104H5.70236V12.6877H8.88128V20.9104ZM19.8532 22.0541C19.5009 22.2334 19.1146 22.1247 18.8526 22.0019L12.3174 18.9391C12.1879 18.8784 12.0409 18.8464 11.8912 18.8464H10.5837V14.1207H15.4342C15.6911 14.1207 15.9376 14.1859 16.1469 14.3092C16.171 14.3234 16.1961 14.3366 16.2219 14.3487L19.7342 15.9914C20.1479 16.1849 20.3577 16.4515 20.3577 16.7836C20.3577 17.1608 20.0761 17.556 19.6728 17.7446C19.3178 17.9107 18.928 17.8968 18.5142 17.7033L15.2783 16.1898C15.1489 16.1293 15.0021 16.0974 14.8527 16.0974H13.4197C12.9496 16.0974 12.5685 16.4061 12.5685 16.7869C12.5685 17.1678 12.9496 17.4765 13.4197 17.4765H14.6246L17.663 18.8976C18.1471 19.124 18.6594 19.2375 19.1631 19.2375C19.6343 19.2375 20.098 19.1381 20.5239 18.939C20.9193 18.754 21.2551 18.4954 21.5112 18.1925L26.9205 15.8888C28.3108 15.2968 29.956 15.5309 30.9718 16.3927L19.8532 22.0541Z" fill="#2C2C2C"/>
<path d="M21.9403 11.9044C24.9512 11.9044 27.4008 9.92 27.4008 7.4808C27.4008 6.19176 26.1721 4.30553 25.1415 2.95015C24.6123 2.25422 24.039 1.57552 23.5273 1.03905C22.7585 0.233021 22.4026 0 21.9403 0C21.478 0 21.122 0.233067 20.3532 1.03905C19.8415 1.57552 19.2682 2.25422 18.739 2.95015C17.7083 4.30553 16.4797 6.1918 16.4797 7.4808C16.4797 9.92 18.9293 11.9044 21.9403 11.9044V11.9044ZM19.9926 3.93483C20.7482 2.91168 21.4858 2.08569 21.9403 1.63634C22.3948 2.08574 23.1325 2.91172 23.888 3.93483C25.0217 5.47003 25.6985 6.79562 25.6985 7.4808C25.6985 9.15956 24.0126 10.5253 21.9403 10.5253C19.868 10.5253 18.1821 9.15956 18.1821 7.4808C18.1821 6.79562 18.8589 5.47003 19.9926 3.93483V3.93483Z" fill="#2C2C2C"/>
</g>
<defs>
<filter id="filter0_d" x="0" y="0" width="37.0493" height="31.5295" filterUnits="userSpaceOnUse" color-interpolation-filters="sRGB">
<feFlood flood-opacity="0" result="BackgroundImageFix"/>
<feColorMatrix in="SourceAlpha" type="matrix" values="0 0 0 0 0 0 0 0 0 0 0 0 0 0 0 0 0 0 127 0"/>
<feOffset dy="4"/>
<feGaussianBlur stdDeviation="2"/>
<feColorMatrix type="matrix" values="0 0 0 0 0 0 0 0 0 0 0 0 0 0 0 0 0 0 0.25 0"/>
<feBlend mode="normal" in2="BackgroundImageFix" result="effect1_dropShadow"/>
<feBlend mode="normal" in="SourceGraphic" in2="effect1_dropShadow" result="shape"/>
</filter>
</defs>
</svg>
