<svg width="26" height="25" viewBox="0 0 26 25" fill="none" xmlns="http://www.w3.org/2000/svg">
<path opacity="0.6" d="M22.5564 2.77778V22.2222H2.81956V2.77778H22.5564ZM24.1072 0H1.2688C0.563911 0 0 0.555556 0 1.25V23.75C0 24.3056 0.563911 25 1.2688 25H24.1072C24.6711 25 25.376 24.3056 25.376 23.75V1.25C25.376 0.555556 24.6711 0 24.1072 0ZM11.2782 5.55556H19.7369V8.33333H11.2782V5.55556ZM11.2782 11.1111H19.7369V13.8889H11.2782V11.1111ZM11.2782 16.6667H19.7369V19.4444H11.2782V16.6667ZM5.63911 5.55556H8.45867V8.33333H5.63911V5.55556ZM5.63911 11.1111H8.45867V13.8889H5.63911V11.1111ZM5.63911 16.6667H8.45867V19.4444H5.63911V16.6667Z" fill="#2C2C2C"/>
</svg>
