<svg width="31" height="28" viewBox="0 0 31 28" fill="none" xmlns="http://www.w3.org/2000/svg">
<path d="M29.7478 12.4398L27.1919 10.1723V2.65326C27.1919 2.17484 26.7935 1.78693 26.3021 1.78693H20.1495C19.6582 1.78693 19.2598 2.17478 19.2598 2.65326V3.13507L16.1729 0.396511C15.5771 -0.13219 14.6786 -0.132132 14.083 0.396454L0.508079 12.4399C0.030838 12.8634 -0.126883 13.5158 0.106301 14.1021C0.339544 14.6883 0.907434 15.0671 1.55315 15.0671H3.72124V27.1336C3.72124 27.612 4.11959 27.9999 4.61102 27.9999H12.0517C12.5431 27.9999 12.9415 27.6121 12.9415 27.1336V19.8072H17.3145V27.1337C17.3145 27.6121 17.7128 28 18.2042 28H25.6446C26.136 28 26.5344 27.6121 26.5343 27.1337V15.0671H28.7029C29.3485 15.0671 29.9165 14.6883 30.1497 14.1021C30.3829 13.5158 30.2252 12.8634 29.7478 12.4398ZM25.6446 13.3345C25.1532 13.3345 24.7548 13.7223 24.7548 14.2008V26.2674H19.0941V18.9409C19.0941 18.4624 18.6957 18.0745 18.2043 18.0745H12.0517C11.5603 18.0745 11.1619 18.4624 11.1619 18.9409V26.2674H5.50073V14.2008C5.50073 13.7224 5.10238 13.3345 4.61096 13.3345H2.14184L15.128 1.8134L19.5504 5.73686C19.8109 5.96792 20.1869 6.02747 20.5091 5.88898C20.8314 5.75032 21.0394 5.43951 21.0394 5.09648V3.51958H25.4124V10.5549C25.4124 10.7987 25.5178 11.0311 25.7029 11.1953L28.1141 13.3345H25.6446Z" fill="#7C7C7C"/>
</svg>
