<svg width="26" height="30" viewBox="0 0 26 30" fill="none" xmlns="http://www.w3.org/2000/svg">
<path d="M21.9555 15.4021V12.5977C21.9555 8.50652 19.274 5.039 15.6 3.90645V2.63672C15.6 1.18283 14.4336 0 13 0C11.5664 0 10.4 1.18283 10.4 2.63672V3.90645C6.72593 5.039 4.04449 8.50646 4.04449 12.5977V15.4021C4.04449 18.9957 2.69377 22.4033 0.241173 24.9971C0.000818633 25.2513 -0.0667232 25.6264 0.0695159 25.9503C0.205755 26.2742 0.519486 26.4844 0.866728 26.4844H8.75386C9.15646 28.4878 10.9073 30 13 30C15.0927 30 16.8434 28.4878 17.2461 26.4844H25.1332C25.4805 26.4844 25.7942 26.2742 25.9304 25.9503C26.0666 25.6264 25.9991 25.2513 25.7588 24.9971C23.3062 22.4033 21.9555 18.9957 21.9555 15.4021V15.4021ZM12.1333 2.63672C12.1333 2.15209 12.5221 1.75781 13 1.75781C13.4779 1.75781 13.8666 2.15209 13.8666 2.63672V3.55828C13.5814 3.53039 13.2923 3.51562 13 3.51562C12.7076 3.51562 12.4186 3.53039 12.1333 3.55828V2.63672ZM13 28.2422C11.8701 28.2422 10.9068 27.5074 10.5491 26.4844H15.4509C15.0931 27.5074 14.1298 28.2422 13 28.2422V28.2422ZM2.73467 24.7266C4.70841 22.0434 5.77781 18.7964 5.77781 15.4021V12.5977C5.77781 8.55908 9.01767 5.27344 13 5.27344C16.9823 5.27344 20.2222 8.55908 20.2222 12.5977V15.4021C20.2222 18.7964 21.2916 22.0434 23.2653 24.7266H2.73467Z" fill="url(#paint0_linear)"/>
<defs>
<linearGradient id="paint0_linear" x1="13" y1="0" x2="13" y2="30" gradientUnits="userSpaceOnUse">
<stop stop-color="#C53D3C"/>
<stop offset="1" stop-color="#EDA26C"/>
</linearGradient>
</defs>
</svg>
