<svg width="17" height="25" viewBox="0 0 17 25" fill="none" xmlns="http://www.w3.org/2000/svg">
<path d="M8.48445 25C13.1628 25 16.969 21.1939 16.969 16.5155C16.969 14.6355 15.8622 11.7764 13.4857 7.51772C11.864 4.6119 10.2499 2.15747 10.1818 2.05408L9.01508 0.28566C8.89745 0.107307 8.69815 5.64006e-07 8.48445 5.64006e-07C8.27075 5.64006e-07 8.07145 0.107307 7.95382 0.28566L6.78717 2.05398C6.71974 2.1562 5.11731 4.58942 3.4832 7.51772C1.10674 11.7762 -9.57976e-05 14.6353 -9.57976e-05 16.5155C-9.57976e-05 21.1939 3.80608 25 8.48445 25ZM4.59339 8.1373C6.20477 5.24994 7.78187 2.85492 7.84834 2.75427L8.48445 1.79009L9.12036 2.75402C9.18718 2.85548 10.7764 5.27196 12.3755 8.1373C14.5799 12.0876 15.6976 14.9065 15.6976 16.5155C15.6976 20.4928 12.4618 23.7286 8.48445 23.7286C4.50709 23.7286 1.27131 20.4928 1.27131 16.5155C1.27131 14.9063 2.38903 12.0875 4.59339 8.1373Z" fill="url(#paint0_linear)"/>
<path d="M8.48428 21.2725C11.0782 21.2725 13.1885 19.1621 13.1885 16.5682C13.1885 13.9744 11.0782 11.864 8.48428 11.864C5.89036 11.864 3.78008 13.9744 3.78008 16.5682C3.78008 19.1621 5.89036 21.2725 8.48428 21.2725ZM8.48428 13.1354C10.3771 13.1354 11.9171 14.6754 11.9171 16.5682C11.9171 18.4611 10.3771 20.001 8.48428 20.001C6.59136 20.001 5.05149 18.4611 5.05149 16.5682C5.05149 14.6754 6.59136 13.1354 8.48428 13.1354Z" fill="url(#paint1_linear)"/>
<defs>
<linearGradient id="paint0_linear" x1="8.48445" y1="25" x2="8.48445" y2="0" gradientUnits="userSpaceOnUse">
<stop stop-color="#F07C22"/>
<stop offset="1" stop-color="#BD0A04"/>
</linearGradient>
<linearGradient id="paint1_linear" x1="8.48428" y1="21.2725" x2="8.48428" y2="11.864" gradientUnits="userSpaceOnUse">
<stop stop-color="#F07C22"/>
<stop offset="1" stop-color="#BD0A04"/>
</linearGradient>
</defs>
</svg>
